<svg width="121" height="116" viewBox="0 0 121 116" fill="none" xmlns="http://www.w3.org/2000/svg">
    <path d="M62.0471 20.4042C65.8902 20.3386 69.7609 20.7877 73.3913 22.0658C78.5111 23.871 83.0177 27.0088 86.4148 31.1341C87.2439 32.1213 88.3471 33.5528 88.8987 34.7013C86.0341 36.4327 82.3365 38.9883 79.5626 40.5005C77.1122 37.1 74.836 34.4961 70.7974 32.7294C66.4115 30.8301 61.4238 30.7066 56.9435 32.3863C52.493 34.0165 48.6718 37.6531 46.7187 41.8431C44.6121 46.367 44.4452 51.5156 46.2546 56.1586C48.4741 61.8315 52.2618 64.9152 57.839 67.3536C60.4712 59.4157 57.4043 53.4914 52.1022 47.4631C51.4596 46.7326 50.7704 46.1741 50.7033 45.1656C51.5368 43.2129 59.2243 49.2464 60.8203 49.8738C66.3913 52.064 69.8567 46.4435 74.6333 44.7799C75.0879 44.6216 75.3934 44.5824 75.8396 44.7795C75.9761 44.9516 76.0357 44.9691 76.0599 45.1804C76.1576 46.0356 74.3665 47.6971 73.756 48.4589C71.3276 51.4889 69.2876 54.5044 68.3312 58.2771C67.9805 59.6608 67.8281 61.1528 67.4745 62.505C67.3273 63.0681 66.7198 64.1584 66.5036 64.835C65.4722 68.063 64.9451 70.7802 65.2981 74.1259C65.5377 75.4936 65.9072 76.9494 66.8341 78.0411C68.7911 80.3457 72.3548 81.6813 75.3291 82.0442C80.0879 82.6249 83.4774 81.5611 87.2431 78.7555C86.0353 79.309 84.4061 79.6336 83.0704 79.7314C77.462 80.1422 73.8381 79.756 69.4807 76.3561C69.666 76.1665 69.862 75.9871 70.0677 75.8184C75.2911 71.4535 81.4782 74.1061 87.5555 73.9315C88.2794 73.9108 89.0693 73.8384 89.7908 73.7626C90.5696 73.6878 91.3405 73.5502 92.0958 73.3512C93.5719 72.962 95.0163 72.4348 96.4926 72.0569C96.8968 71.9534 97.1209 71.9154 97.3691 72.2365C97.4495 73.4563 95.1714 76.4766 94.369 77.4321C90.7036 81.7662 86.5174 85.4249 80.6823 86.1466C70.8632 87.361 64.2911 83.3528 56.2806 78.8199C52.3637 76.6036 49.1971 75.5467 45.4425 72.5576C32.2759 62.0754 30.0948 43.6369 40.8509 30.7493C44.6863 26.1695 49.9248 22.8878 55.8106 21.3779C57.9821 20.8367 59.8458 20.6325 62.0471 20.4042Z" fill="#127C2F"/>
    <path d="M106.07 49.7512L106.208 49.7645L106.3 49.9199C105.973 54.4353 104.207 59.3428 101.582 63.06C98.07 68.0339 91.9138 71.2299 85.6757 70.9251C81.1896 70.7058 79.8332 69.9446 75.2533 70.7427C76.0112 69.8562 77.9677 68.3589 78.9209 67.6549C81.9187 65.3987 85.0988 63.3794 88.4306 61.6166C90.0861 60.7349 91.7723 59.9785 93.4258 59.1165C92.4668 59.2608 87.6184 60.8657 86.6907 61.2711C81.1211 63.3911 75.8885 66.6807 71.3839 70.4957C70.3505 71.3708 69.4502 72.2483 68.3264 73.0315C68.309 70.4081 69.0762 67.2089 70.2719 64.8261C74.6116 56.1307 84.1516 51.0978 93.8926 50.5393C98.1304 50.2963 102.013 51.1868 106.07 49.7512Z" fill="#FEAA01"/>
    <path d="M28.4425 68.5583C28.8857 68.6239 29.2396 68.8644 29.5402 69.1603C33.8082 73.3596 38.8241 76.6626 44.7484 78.2168C46.9165 78.8125 49.1725 79.2049 51.2851 79.9695C55.88 81.6324 59.9753 84.6726 64.4439 86.5248C66.5266 87.3938 68.6919 88.0626 70.909 88.5237C71.6893 88.6848 73.4972 88.9063 74.0825 89.1172L74.1503 89.2688C73.8819 89.5507 73.5096 89.6292 73.1225 89.7617C67.7335 91.2466 60.3061 91.2635 54.8897 89.9673C44.2931 87.3567 35.1948 80.7892 29.5835 71.701C29.0354 70.8207 28.1837 69.5668 28.4425 68.5583Z" fill="#127C2F"/>
    <path d="M62.6737 0.0399281C64.4292 -0.138242 66.2088 0.276182 67.5798 1.35739C73.8537 6.30525 67.5994 13.2168 64.1289 17.4366L63.7863 17.719C63.5706 17.7549 63.2668 17.8034 63.1081 17.6082C60.9888 15.0004 57.5751 11.1284 56.9653 7.88737C56.6111 6.0549 57.0358 4.16148 58.143 2.63649C59.2568 1.12146 60.8172 0.334794 62.6737 0.0399281ZM60.7061 6.63393C60.7123 7.19833 60.9002 7.74683 61.2436 8.20291C61.8992 9.07351 63.0249 9.4855 64.1112 9.25253C65.0992 9.04066 65.8923 8.32893 66.1855 7.39102C66.4787 6.453 66.2265 5.43485 65.5258 4.72779C64.8136 4.00907 63.7517 3.7265 62.7603 3.99168C61.5359 4.31919 60.6926 5.4039 60.7061 6.63393Z" fill="#FEAA01"/>
    <path d="M62.3691 39.5115C64.8453 38.9615 67.3098 40.4711 67.8578 42.8735C68.4058 45.2758 66.8274 47.6504 64.3424 48.1618C61.8854 48.6675 59.4671 47.1598 58.9252 44.7845C58.3835 42.4093 59.9208 40.0552 62.3691 39.5115Z" fill="#127C2F"/>
    <path d="M36.1512 12.983C37.526 12.6999 38.9516 13.1571 39.8802 14.1791C40.8087 15.201 41.0956 16.6286 40.6305 17.9132C40.1655 19.1978 39.021 20.1395 37.6368 20.3762C35.5475 20.7336 33.5479 19.4035 33.1426 17.3866C32.7374 15.3698 34.076 13.4104 36.1512 12.983Z" fill="#127C2F"/>
    <path d="M89.2965 12.9065C91.4401 12.7247 93.328 14.2647 93.5072 16.3414C93.6863 18.4181 92.0886 20.2403 89.9435 20.4055C87.8106 20.5698 85.9419 19.033 85.7637 16.9681C85.5855 14.9031 87.165 13.0873 89.2965 12.9065Z" fill="#127C2F"/>
    <path d="M25.1168 31.3058C27.2349 31.1709 29.07 32.7133 29.2301 34.7632C29.3901 36.8131 27.8155 38.6053 25.7005 38.7804C23.556 38.958 21.6739 37.407 21.5115 35.3286C21.3492 33.2501 22.9691 31.4426 25.1168 31.3058Z" fill="#FEAA01"/>
    <path d="M99.9736 31.411C102.037 30.9133 104.128 32.125 104.65 34.1213C105.173 36.1178 103.931 38.1476 101.871 38.6619C99.8 39.1792 97.689 37.9673 97.1633 35.9592C96.6378 33.951 97.8979 31.9117 99.9736 31.411Z" fill="#FEAA01"/>
    <path d="M24.8087 60.1487C26.8755 59.6794 28.9444 60.9193 29.4329 62.9201C29.9212 64.9207 28.6446 66.9266 26.5796 67.4032C24.5094 67.8812 22.4316 66.641 21.9419 64.6351C21.4521 62.6292 22.7366 60.6192 24.8087 60.1487Z" fill="#127C2F"/>
    <path d="M51.8484 9.23653L52.1651 9.38629C52.3771 9.69748 52.3628 9.57548 52.3126 9.8765C52.0394 10.0623 48.6382 11.1998 48.1112 11.4C46.4257 12.0444 44.7912 12.8074 43.2205 13.6825C42.8006 13.7095 42.7303 13.5666 42.5765 13.2452C42.8277 11.8096 50.3995 9.59933 51.8484 9.23653Z" fill="#127C2F"/>
    <path d="M74.5779 9.32185C76.5575 9.12916 82.0667 11.6136 83.8933 12.8318C84.2554 13.0734 84.1738 13.3058 84.091 13.6482C83.5631 13.766 82.5478 13.2002 82.0726 12.935C79.7074 11.6151 77.2549 10.8217 74.7264 9.95228C74.5888 9.90501 74.5887 9.45455 74.5779 9.32185Z" fill="#127C2F"/>
    <path d="M93.9584 21.481C95.3163 21.5608 99.4823 27.8246 99.1896 28.7811C98.7443 28.7816 98.484 28.7238 98.2419 28.3459C96.9318 26.3003 95.5902 24.3109 94.1163 22.3706C93.8475 22.0167 93.8708 21.8768 93.9584 21.481Z" fill="#127C2F"/>
    <path d="M32.0761 21.4872C32.2858 21.4815 32.3234 21.5137 32.5169 21.5885L32.6025 21.8416C32.4897 22.5238 30.4664 24.9607 29.959 25.7182C29.3253 26.6645 28.6087 27.8945 27.9502 28.8041L27.4669 28.704C27.3523 28.5594 27.2652 28.5178 27.3051 28.3734C27.7539 26.7478 30.9917 22.3791 32.0761 21.4872Z" fill="#127C2F"/>
    <path d="M22.6374 49.8905C22.8422 49.9014 23.2883 49.8965 23.3674 50.1196C23.454 50.3717 23.5925 51.149 23.5674 51.3797C23.4596 52.372 24.5844 57.2639 24.2943 57.828C23.7779 57.7774 23.5746 57.5924 23.4343 57.098C23.1041 55.9336 22.1831 50.7853 22.6374 49.8905Z" fill="#127C2F"/>
    <path d="M23.4667 40.6398L23.7493 40.7025C24.2898 41.182 23.806 43.5846 23.7154 44.3937C23.6085 45.347 23.7046 46.8421 23.0715 47.5229C22.7726 47.3944 22.5038 47.1737 22.5114 46.8352C22.5406 45.5309 22.7393 41.5792 23.4667 40.6398Z" fill="#127C2F"/>
    <path d="M102.545 40.6623L102.927 40.6975C103.666 41.2349 104.128 46.5855 103.724 47.4573C103.488 47.4304 103.086 47.3475 103.07 47.076C102.998 45.8946 102.183 41.4779 102.545 40.6623Z" fill="#127C2F"/>
    <path d="M7.21037 112.49C5.93111 112.49 4.83275 112.263 3.91531 111.811C2.99786 111.358 2.24839 110.77 1.66691 110.046C1.09835 109.322 0.678394 108.533 0.407037 107.68C0.135679 106.827 0 106.006 0 105.217V104.79C0 103.911 0.135679 103.045 0.407037 102.192C0.691316 101.338 1.1242 100.562 1.70568 99.8642C2.28716 99.1661 3.0237 98.6101 3.91531 98.1964C4.81983 97.7697 5.88588 97.5564 7.11345 97.5564C8.39271 97.5564 9.50398 97.7891 10.4473 98.2545C11.4035 98.7071 12.1659 99.3535 12.7344 100.194C13.303 101.021 13.6454 101.991 13.7617 103.103H10.99C10.8866 102.457 10.654 101.914 10.2922 101.474C9.94333 101.021 9.49752 100.685 8.95481 100.465C8.41209 100.233 7.79831 100.116 7.11345 100.116C6.41567 100.116 5.79543 100.239 5.25271 100.485C4.71 100.718 4.25773 101.054 3.89592 101.493C3.53411 101.933 3.25629 102.45 3.06247 103.045C2.88156 103.64 2.79111 104.299 2.79111 105.023C2.79111 105.721 2.88156 106.368 3.06247 106.962C3.25629 107.557 3.54057 108.081 3.91531 108.533C4.29004 108.973 4.74876 109.316 5.29148 109.561C5.84712 109.807 6.48674 109.93 7.21037 109.93C8.26995 109.93 9.16156 109.671 9.88518 109.154C10.6217 108.624 11.0675 107.887 11.2226 106.943H13.9943C13.8651 107.952 13.5227 108.876 12.967 109.716C12.4114 110.557 11.649 111.229 10.6799 111.733C9.71073 112.238 8.55423 112.49 7.21037 112.49Z" fill="#001310"/>
    <path d="M15.8517 112.121V97.9636H18.5459V112.121H15.8517ZM14.5337 99.9806V97.9636H18.5459V99.9806H14.5337Z" fill="#001310"/>
    <path d="M25.944 112.49C25.0395 112.49 24.2448 112.335 23.56 112.024C22.888 111.714 22.3259 111.3 21.8737 110.783C21.4343 110.253 21.0984 109.665 20.8658 109.018C20.6461 108.372 20.5363 107.712 20.5363 107.04V106.672C20.5363 105.973 20.6461 105.301 20.8658 104.655C21.0984 103.995 21.4343 103.413 21.8737 102.909C22.3259 102.392 22.8816 101.985 23.5406 101.687C24.1996 101.377 24.962 101.222 25.8278 101.222C26.9649 101.222 27.9146 101.474 28.677 101.978C29.4523 102.469 30.0338 103.122 30.4215 103.937C30.8091 104.739 31.0029 105.605 31.0029 106.536V107.505H21.6799V105.857H29.3166L28.4832 106.672C28.4832 105.999 28.3863 105.424 28.1924 104.945C27.9986 104.467 27.7014 104.099 27.3008 103.84C26.9132 103.581 26.4222 103.452 25.8278 103.452C25.2333 103.452 24.7294 103.588 24.3159 103.859C23.9024 104.131 23.5858 104.525 23.3661 105.042C23.1594 105.547 23.056 106.154 23.056 106.865C23.056 107.525 23.1594 108.113 23.3661 108.63C23.5729 109.135 23.8895 109.535 24.3159 109.833C24.7423 110.117 25.285 110.259 25.944 110.259C26.6031 110.259 27.1393 110.13 27.5528 109.872C27.9663 109.6 28.2312 109.27 28.3475 108.882H30.8285C30.6734 109.606 30.3762 110.24 29.9369 110.783C29.4975 111.326 28.9354 111.746 28.2506 112.044C27.5787 112.341 26.8098 112.49 25.944 112.49Z" fill="#001310"/>
    <path d="M39.2429 112.121V108.999H38.7971V105.527C38.7971 104.92 38.6484 104.467 38.3512 104.17C38.054 103.872 37.5953 103.724 36.9751 103.724C36.652 103.724 36.2644 103.73 35.8121 103.743C35.3599 103.756 34.9011 103.775 34.4359 103.801C33.9837 103.814 33.5766 103.834 33.2148 103.859V101.571C33.512 101.545 33.848 101.519 34.2227 101.493C34.5975 101.467 34.9787 101.455 35.3663 101.455C35.7669 101.442 36.1416 101.435 36.4905 101.435C37.5759 101.435 38.474 101.577 39.1847 101.862C39.9083 102.146 40.451 102.592 40.8128 103.2C41.1876 103.808 41.3749 104.603 41.3749 105.585V112.121H39.2429ZM35.8509 112.393C35.0885 112.393 34.4166 112.257 33.8351 111.985C33.2665 111.714 32.8207 111.326 32.4977 110.822C32.1875 110.318 32.0325 109.71 32.0325 108.999C32.0325 108.223 32.2199 107.59 32.5946 107.098C32.9822 106.607 33.5185 106.238 34.2034 105.993C34.9011 105.747 35.7152 105.624 36.6456 105.624H39.0878V107.234H36.6068C35.9866 107.234 35.5085 107.389 35.1725 107.699C34.8494 107.997 34.6879 108.385 34.6879 108.863C34.6879 109.341 34.8494 109.729 35.1725 110.027C35.5085 110.324 35.9866 110.473 36.6068 110.473C36.9815 110.473 37.324 110.408 37.6341 110.279C37.9571 110.137 38.222 109.904 38.4288 109.581C38.6484 109.244 38.7712 108.792 38.7971 108.223L39.4561 108.979C39.3915 109.716 39.2105 110.337 38.9133 110.841C38.6291 111.345 38.2285 111.733 37.7116 112.005C37.2077 112.263 36.5874 112.393 35.8509 112.393Z" fill="#001310"/>
    <path d="M43.8732 112.121V101.59H46.0053V106.109H45.8115C45.8115 105.036 45.9536 104.144 46.2379 103.433C46.5222 102.709 46.9421 102.166 47.4978 101.804C48.0663 101.442 48.7706 101.261 49.6105 101.261H49.7268C50.9802 101.261 51.9299 101.668 52.576 102.482C53.2221 103.284 53.5452 104.486 53.5452 106.09V112.121H50.851V105.857C50.851 105.211 50.6636 104.687 50.2889 104.286C49.9271 103.885 49.4231 103.685 48.777 103.685C48.118 103.685 47.5818 103.892 47.1683 104.305C46.7677 104.706 46.5674 105.249 46.5674 105.935V112.121H43.8732Z" fill="#001310"/>
    <path d="M56.2672 112.121V97.8667H59.0196V112.121H56.2672ZM64.9119 112.121L60.5702 105.954H63.652L68.1294 112.121H64.9119ZM58.2055 107.389V105.159H61.8107C62.3146 105.159 62.7475 105.055 63.1093 104.848C63.484 104.642 63.7748 104.351 63.9815 103.976C64.1883 103.601 64.2917 103.174 64.2917 102.696C64.2917 102.204 64.1883 101.771 63.9815 101.396C63.7748 101.021 63.484 100.731 63.1093 100.524C62.7475 100.317 62.3146 100.213 61.8107 100.213H58.2055V97.8667H61.5199C62.6571 97.8667 63.6391 98.0348 64.4661 98.3709C65.306 98.7071 65.9521 99.2178 66.4044 99.903C66.8566 100.588 67.0828 101.448 67.0828 102.482V102.793C67.0828 103.84 66.8502 104.7 66.385 105.372C65.9327 106.044 65.2931 106.549 64.4661 106.885C63.6391 107.221 62.6571 107.389 61.5199 107.389H58.2055Z" fill="#FEAA01"/>
    <path d="M74.1373 112.49C73.2328 112.49 72.4381 112.335 71.7532 112.024C71.0813 111.714 70.5192 111.3 70.0669 110.783C69.6276 110.253 69.2916 109.665 69.0591 109.018C68.8394 108.372 68.7295 107.712 68.7295 107.04V106.672C68.7295 105.973 68.8394 105.301 69.0591 104.655C69.2916 103.995 69.6276 103.413 70.0669 102.909C70.5192 102.392 71.0749 101.985 71.7339 101.687C72.3929 101.377 73.1553 101.222 74.021 101.222C75.1581 101.222 76.1079 101.474 76.8703 101.978C77.6456 102.469 78.2271 103.122 78.6147 103.937C79.0024 104.739 79.1962 105.605 79.1962 106.536V107.505H69.8731V105.857H77.5099L76.6764 106.672C76.6764 105.999 76.5795 105.424 76.3857 104.945C76.1919 104.467 75.8947 104.099 75.4941 103.84C75.1065 103.581 74.6154 103.452 74.021 103.452C73.4266 103.452 72.9227 103.588 72.5092 103.859C72.0957 104.131 71.7791 104.525 71.5594 105.042C71.3527 105.547 71.2493 106.154 71.2493 106.865C71.2493 107.525 71.3527 108.113 71.5594 108.63C71.7662 109.135 72.0827 109.535 72.5092 109.833C72.9356 110.117 73.4783 110.259 74.1373 110.259C74.7963 110.259 75.3326 110.13 75.7461 109.872C76.1596 109.6 76.4245 109.27 76.5408 108.882H79.0218C78.8667 109.606 78.5695 110.24 78.1301 110.783C77.6908 111.326 77.1287 111.746 76.4439 112.044C75.7719 112.341 75.0031 112.49 74.1373 112.49Z" fill="#FEAA01"/>
    <path d="M81.0592 116V101.59H83.1913V106.128L82.8618 106.109C82.9135 105.036 83.1332 104.137 83.5208 103.413C83.9214 102.689 84.4512 102.153 85.1102 101.804C85.7692 101.442 86.5058 101.261 87.3198 101.261C88.0693 101.261 88.7412 101.396 89.3356 101.668C89.9429 101.939 90.4598 102.321 90.8862 102.812C91.3256 103.303 91.6616 103.879 91.8941 104.538C92.1267 105.185 92.243 105.883 92.243 106.633V107.04C92.243 107.803 92.1267 108.514 91.8941 109.173C91.6745 109.82 91.345 110.395 90.9056 110.899C90.4792 111.391 89.9623 111.779 89.355 112.063C88.7477 112.335 88.0693 112.47 87.3198 112.47C86.5316 112.47 85.808 112.309 85.149 111.985C84.5029 111.649 83.9795 111.139 83.579 110.453C83.1784 109.755 82.9523 108.857 82.9006 107.758L83.7534 109.057V116H81.0592ZM86.6414 110.201C87.2229 110.201 87.7269 110.059 88.1533 109.775C88.5926 109.49 88.9351 109.096 89.1806 108.592C89.4261 108.074 89.5488 107.493 89.5488 106.846C89.5488 106.174 89.4261 105.592 89.1806 105.101C88.9351 104.609 88.5926 104.228 88.1533 103.956C87.7269 103.672 87.2229 103.53 86.6414 103.53C86.1116 103.53 85.6206 103.646 85.1683 103.879C84.729 104.112 84.3672 104.454 84.0829 104.907C83.8116 105.359 83.6759 105.902 83.6759 106.536V107.312C83.6759 107.919 83.818 108.436 84.1023 108.863C84.3866 109.29 84.7548 109.619 85.2071 109.852C85.6594 110.085 86.1375 110.201 86.6414 110.201Z" fill="#FEAA01"/>
    <path d="M99.2832 112.49C98.3528 112.49 97.5323 112.341 96.8216 112.044C96.1109 111.746 95.51 111.345 95.019 110.841C94.528 110.324 94.1532 109.742 93.8948 109.096C93.6493 108.449 93.5265 107.777 93.5265 107.079V106.672C93.5265 105.947 93.6557 105.262 93.9142 104.616C94.1855 103.956 94.5667 103.375 95.0578 102.87C95.5617 102.353 96.169 101.952 96.8797 101.668C97.5904 101.371 98.3916 101.222 99.2832 101.222C100.175 101.222 100.976 101.371 101.687 101.668C102.397 101.952 102.998 102.353 103.489 102.87C103.993 103.375 104.374 103.956 104.633 104.616C104.891 105.262 105.02 105.947 105.02 106.672V107.079C105.02 107.777 104.891 108.449 104.633 109.096C104.387 109.742 104.019 110.324 103.528 110.841C103.037 111.345 102.436 111.746 101.725 112.044C101.015 112.341 100.201 112.49 99.2832 112.49ZM99.2832 110.182C99.9422 110.182 100.498 110.04 100.95 109.755C101.402 109.458 101.745 109.063 101.977 108.572C102.21 108.068 102.326 107.499 102.326 106.865C102.326 106.219 102.204 105.65 101.958 105.159C101.725 104.655 101.377 104.26 100.911 103.976C100.459 103.678 99.9164 103.53 99.2832 103.53C98.65 103.53 98.1008 103.678 97.6357 103.976C97.1834 104.26 96.8345 104.655 96.589 105.159C96.3435 105.65 96.2207 106.219 96.2207 106.865C96.2207 107.499 96.337 108.068 96.5696 108.572C96.8151 109.063 97.164 109.458 97.6163 109.755C98.0685 110.04 98.6242 110.182 99.2832 110.182Z" fill="#FEAA01"/>
    <path d="M106.992 112.121V101.59H109.124V106.051H109.066C109.066 104.538 109.389 103.394 110.035 102.618C110.681 101.842 111.631 101.455 112.884 101.455H113.272V103.801H112.535C111.631 103.801 110.927 104.047 110.423 104.538C109.932 105.017 109.686 105.715 109.686 106.633V112.121H106.992Z" fill="#FEAA01"/>
    <path d="M119.488 112.257C118.519 112.257 117.718 112.134 117.085 111.888C116.464 111.63 115.999 111.203 115.689 110.608C115.379 110.001 115.224 109.186 115.224 108.165L115.243 98.623H117.763L117.744 108.339C117.744 108.857 117.879 109.257 118.151 109.542C118.435 109.813 118.836 109.949 119.352 109.949H121V112.257H119.488ZM113.557 103.568V101.59H121V103.568H113.557Z" fill="#FEAA01"/>
</svg>
