<svg xmlns="http://www.w3.org/2000/svg" width="171" height="32" viewBox="0 0 171 32" fill="none">
  <path d="M14.227 7.12293C15.5754 7.10002 16.9335 7.2568 18.2074 7.70298C20.0038 8.33314 21.585 9.42853 22.777 10.8686C23.0679 11.2132 23.455 11.713 23.6485 12.1139C22.6434 12.7183 21.346 13.6105 20.3727 14.1383C19.5129 12.9513 18.7143 12.0423 17.2972 11.4255C15.7583 10.7625 14.0083 10.7194 12.4362 11.3057C10.8746 11.8749 9.53384 13.1444 8.84857 14.607C8.10941 16.1863 8.05085 17.9836 8.68571 19.6045C9.46449 21.5848 10.7935 22.6613 12.7504 23.5125C13.674 20.7415 12.5979 18.6734 10.7375 16.5689C10.5121 16.3139 10.2702 16.1189 10.2467 15.7669C10.5391 15.0852 13.2365 17.1915 13.7965 17.4105C15.7512 18.1751 16.9671 16.213 18.6431 15.6322C18.8027 15.577 18.9098 15.5633 19.0664 15.6321C19.1143 15.6922 19.1352 15.6983 19.1437 15.7721C19.178 16.0706 18.5495 16.6506 18.3353 16.9166C17.4833 17.9743 16.7675 19.027 16.4319 20.344C16.3088 20.8271 16.2554 21.3479 16.1313 21.8199C16.0796 22.0165 15.8665 22.3971 15.7906 22.6333C15.4287 23.7602 15.2438 24.7087 15.3676 25.8767C15.4517 26.3541 15.5813 26.8623 15.9066 27.2434C16.5933 28.0479 17.8437 28.5142 18.8873 28.6409C20.557 28.8436 21.7463 28.4722 23.0676 27.4928C22.6438 27.686 22.0722 27.7994 21.6035 27.8335C19.6357 27.9769 18.3641 27.8421 16.8352 26.6552C16.9002 26.5891 16.969 26.5264 17.0412 26.4675C18.8739 24.9438 21.0449 25.8698 23.1772 25.8088C23.4313 25.8016 23.7084 25.7763 23.9615 25.7498C24.2348 25.7237 24.5053 25.6757 24.7703 25.6062C25.2882 25.4704 25.7951 25.2863 26.3131 25.1544C26.4549 25.1183 26.5335 25.105 26.6206 25.2171C26.6488 25.6429 25.8495 26.6973 25.5679 27.0308C24.2819 28.5438 22.813 29.8211 20.7656 30.073C17.3203 30.4969 15.0143 29.0977 12.2036 27.5153C10.8292 26.7416 9.71817 26.3727 8.40077 25.3292C3.78093 21.67 3.01562 15.2332 6.7897 10.7343C8.13545 9.13553 9.9735 7.98992 12.0387 7.46281C12.8006 7.27389 13.4545 7.20263 14.227 7.12293Z" fill="#127C2F"/>
  <path d="M29.6735 17.3677L29.7218 17.3723L29.7541 17.4266C29.6397 19.0029 29.0199 20.716 28.0988 22.0137C26.8665 23.75 24.7065 24.8657 22.5177 24.7593C20.9436 24.6828 20.4677 24.417 18.8607 24.6956C19.1266 24.3862 19.8131 23.8635 20.1476 23.6177C21.1994 22.8301 22.3152 22.1252 23.4843 21.5098C24.0652 21.202 24.6568 20.938 25.237 20.637C24.9005 20.6874 23.1993 21.2476 22.8738 21.3892C20.9196 22.1293 19.0836 23.2776 17.503 24.6094C17.1404 24.9149 16.8245 25.2212 16.4302 25.4946C16.4241 24.5788 16.6933 23.462 17.1128 22.6302C18.6355 19.5947 21.9829 17.8378 25.4008 17.6428C26.8877 17.558 28.2499 17.8688 29.6735 17.3677Z" fill="#FEAA01"/>
  <path d="M2.43587 23.9331C2.59136 23.956 2.71555 24.0399 2.82104 24.1432C4.31855 25.6092 6.07854 26.7622 8.15722 27.3048C8.91796 27.5127 9.70953 27.6497 10.4508 27.9166C12.0631 28.4971 13.5 29.5584 15.0679 30.205C15.7987 30.5084 16.5584 30.7419 17.3364 30.9028C17.6102 30.9591 18.2445 31.0364 18.4499 31.11L18.4737 31.1629C18.3795 31.2613 18.2489 31.2887 18.1131 31.335C16.2222 31.8534 13.6161 31.8593 11.7156 31.4068C7.99747 30.4954 4.8051 28.2028 2.83621 25.0302C2.64389 24.7229 2.34505 24.2852 2.43587 23.9331Z" fill="#127C2F"/>
  <path d="M14.4468 0.0139385C15.0628 -0.0482591 15.6872 0.0964127 16.1682 0.473854C18.3696 2.20111 16.1751 4.61386 14.9574 6.08696L14.8372 6.18553C14.7615 6.19807 14.6549 6.21502 14.5992 6.14686C13.8556 5.2365 12.6578 3.88481 12.4438 2.75341C12.3196 2.11371 12.4686 1.45274 12.8571 0.920374C13.2479 0.39149 13.7954 0.116874 14.4468 0.0139385ZM13.7564 2.31584C13.7586 2.51287 13.8245 2.70435 13.945 2.86356C14.175 3.16748 14.57 3.3113 14.9512 3.22997C15.2979 3.15601 15.5761 2.90755 15.679 2.58014C15.7819 2.25268 15.6934 1.89726 15.4476 1.65043C15.1976 1.39953 14.8251 1.30089 14.4772 1.39346C14.0476 1.50779 13.7517 1.88645 13.7564 2.31584Z" fill="#FEAA01"/>
  <path d="M14.3399 13.7931C15.2088 13.6011 16.0735 14.1281 16.2658 14.9668C16.4581 15.8054 15.9042 16.6343 15.0323 16.8129C14.1702 16.9894 13.3217 16.4631 13.1315 15.6339C12.9415 14.8047 13.4809 13.9829 14.3399 13.7931Z" fill="#127C2F"/>
  <path d="M5.14066 4.53224C5.62306 4.43341 6.12328 4.59303 6.44908 4.94979C6.77488 5.30654 6.87553 5.8049 6.71236 6.25335C6.54919 6.70179 6.14763 7.0305 5.66192 7.11316C4.92884 7.23793 4.22724 6.77357 4.08503 6.06949C3.94283 5.36545 4.41252 4.68146 5.14066 4.53224Z" fill="#127C2F"/>
  <path d="M23.7881 4.50553C24.5403 4.44207 25.2027 4.97969 25.2656 5.70464C25.3284 6.42959 24.7678 7.0657 24.0152 7.12338C23.2667 7.18073 22.6111 6.64426 22.5486 5.92342C22.486 5.20254 23.0402 4.56865 23.7881 4.50553Z" fill="#127C2F"/>
  <path d="M1.26896 10.9286C2.01215 10.8815 2.65603 11.4199 2.71221 12.1355C2.76835 12.8511 2.21587 13.4767 1.47376 13.5379C0.721314 13.5999 0.0609205 13.0585 0.00393244 12.3329C-0.0530173 11.6073 0.515365 10.9763 1.26896 10.9286Z" fill="#FEAA01"/>
  <path d="M27.5345 10.9653C28.2585 10.7916 28.9922 11.2145 29.1754 11.9114C29.3589 12.6084 28.9229 13.317 28.2004 13.4965C27.4735 13.6771 26.7328 13.254 26.5484 12.553C26.364 11.852 26.8062 11.1401 27.5345 10.9653Z" fill="#FEAA01"/>
  <path d="M1.16086 20.9974C1.88604 20.8335 2.61198 21.2664 2.78337 21.9648C2.95472 22.6632 2.5068 23.3635 1.78224 23.5299C1.05583 23.6967 0.326775 23.2638 0.154966 22.5635C-0.0168812 21.8633 0.4338 21.1616 1.16086 20.9974Z" fill="#127C2F"/>
  <path d="M10.6485 3.22439L10.7596 3.27667C10.834 3.3853 10.8289 3.34271 10.8113 3.4478C10.7155 3.51266 9.52206 3.90974 9.33716 3.97964C8.74577 4.2046 8.17224 4.47093 7.62114 4.77644C7.47379 4.78588 7.44914 4.73596 7.39515 4.62378C7.48332 4.12261 10.1401 3.35104 10.6485 3.22439Z" fill="#127C2F"/>
  <path d="M18.6237 3.25417C19.3183 3.18691 21.2514 4.0542 21.8923 4.47948C22.0193 4.5638 21.9907 4.64494 21.9616 4.76445C21.7764 4.8056 21.4202 4.60806 21.2534 4.51548C20.4235 4.05471 19.563 3.77777 18.6758 3.47425C18.6275 3.45775 18.6275 3.3005 18.6237 3.25417Z" fill="#127C2F"/>
  <path d="M25.4239 7.49882C25.9003 7.52668 27.3621 9.71333 27.2594 10.0472C27.1031 10.0474 27.0118 10.0272 26.9268 9.8953C26.4672 9.18119 25.9965 8.48673 25.4793 7.80936C25.385 7.68582 25.3931 7.63698 25.4239 7.49882Z" fill="#127C2F"/>
  <path d="M3.71081 7.50097C3.78439 7.49901 3.7976 7.51022 3.86549 7.53634L3.89552 7.6247C3.85593 7.86287 3.146 8.71355 2.96797 8.97799C2.74562 9.30833 2.49417 9.73772 2.26315 10.0553L2.09356 10.0203C2.05336 9.96982 2.02279 9.95532 2.03677 9.90488C2.19425 9.33741 3.33033 7.81233 3.71081 7.50097Z" fill="#127C2F"/>
  <path d="M0.399009 17.4163C0.470858 17.4201 0.627384 17.4184 0.655148 17.4963C0.685524 17.5843 0.734102 17.8556 0.725308 17.9362C0.687483 18.2826 1.08214 19.9903 0.980372 20.1872C0.799155 20.1696 0.727843 20.105 0.678612 19.9324C0.562754 19.5259 0.239603 17.7287 0.399009 17.4163Z" fill="#127C2F"/>
  <path d="M0.689981 14.187L0.789134 14.2089C0.9788 14.3763 0.809026 15.215 0.77723 15.4974C0.73975 15.8302 0.773467 16.3522 0.551313 16.5898C0.446438 16.545 0.352123 16.4679 0.354773 16.3498C0.365026 15.8944 0.434763 14.5149 0.689981 14.187Z" fill="#127C2F"/>
  <path d="M28.4367 14.1948L28.5709 14.2071C28.8302 14.3947 28.9922 16.2626 28.8505 16.5669C28.7675 16.5575 28.6265 16.5286 28.6208 16.4338C28.5957 16.0214 28.3097 14.4796 28.4367 14.1948Z" fill="#127C2F"/>
  <path d="M42.5867 18.2532C41.1903 18.2532 39.9913 18.0064 38.9898 17.5127C37.9883 17.0191 37.1702 16.3773 36.5354 15.5874C35.9147 14.7976 35.4563 13.9372 35.1601 13.0063C34.8639 12.0754 34.7158 11.1797 34.7158 10.3193V9.85388C34.7158 8.89477 34.8639 7.94975 35.1601 7.01884C35.4704 6.08793 35.943 5.24165 36.5777 4.48C37.2125 3.71835 38.0165 3.11184 38.9898 2.66049C39.9772 2.19504 41.1409 1.96231 42.4809 1.96231C43.8774 1.96231 45.0905 2.2162 46.1202 2.72397C47.164 3.21763 47.9962 3.92286 48.6169 4.83967C49.2375 5.74237 49.6113 6.80022 49.7383 8.01322H46.7126C46.5998 7.30799 46.3459 6.71559 45.9509 6.23603C45.5701 5.74237 45.0834 5.37565 44.491 5.13587C43.8985 4.88198 43.2285 4.75504 42.4809 4.75504C41.7192 4.75504 41.0422 4.88904 40.4497 5.15702C39.8573 5.41091 39.3636 5.77763 38.9686 6.25719C38.5737 6.73675 38.2704 7.30094 38.0588 7.94975C37.8613 8.59857 37.7626 9.31791 37.7626 10.1078C37.7626 10.8694 37.8613 11.5747 38.0588 12.2235C38.2704 12.8723 38.5807 13.4435 38.9898 13.9372C39.3988 14.4167 39.8996 14.7905 40.492 15.0585C41.0986 15.3265 41.7968 15.4605 42.5867 15.4605C43.7434 15.4605 44.7167 15.1784 45.5066 14.6142C46.3106 14.0359 46.7973 13.232 46.9665 12.2023H49.9922C49.8511 13.3025 49.4773 14.311 48.8708 15.2278C48.2642 16.1446 47.432 16.878 46.3741 17.4281C45.3162 17.9782 44.0537 18.2532 42.5867 18.2532Z" fill="#001310"/>
  <path d="M52.0198 17.8512V2.40661H54.9608V17.8512H52.0198ZM50.581 4.60694V2.40661H54.9608V4.60694H50.581Z" fill="#001310"/>
  <path d="M63.0367 18.2532C62.0493 18.2532 61.1818 18.084 60.4342 17.7455C59.7007 17.4069 59.0871 16.9556 58.5934 16.3914C58.1138 15.8131 57.7471 15.1713 57.4932 14.4661C57.2534 13.7609 57.1335 13.0415 57.1335 12.3081V11.9061C57.1335 11.1445 57.2534 10.411 57.4932 9.70578C57.7471 8.98645 58.1138 8.35174 58.5934 7.80165C59.0871 7.23746 59.6937 6.79317 60.4131 6.46876C61.1325 6.13025 61.9647 5.96099 62.9098 5.96099C64.1511 5.96099 65.1878 6.23603 66.0201 6.78612C66.8664 7.32209 67.5012 8.03438 67.9243 8.92297C68.3475 9.79747 68.5591 10.7425 68.5591 11.758V12.8159H58.3819V11.0175H66.7183L65.8085 11.9061C65.8085 11.1727 65.7027 10.545 65.4911 10.0231C65.2795 9.50127 64.9551 9.09928 64.5178 8.81719C64.0946 8.5351 63.5586 8.39405 62.9098 8.39405C62.2609 8.39405 61.7108 8.54215 61.2594 8.83835C60.808 9.13454 60.4624 9.56474 60.2226 10.1289C59.997 10.679 59.8841 11.3419 59.8841 12.1177C59.8841 12.837 59.997 13.4788 60.2226 14.043C60.4483 14.5931 60.7939 15.0303 61.2594 15.3547C61.7249 15.665 62.3173 15.8202 63.0367 15.8202C63.7561 15.8202 64.3415 15.6791 64.7929 15.397C65.2442 15.1008 65.5334 14.7412 65.6604 14.318H68.3687C68.1994 15.1079 67.875 15.799 67.3954 16.3914C66.9158 16.9838 66.3022 17.4422 65.5546 17.7666C64.8211 18.091 63.9818 18.2532 63.0367 18.2532Z" fill="#001310"/>
  <path d="M77.5539 17.8512V14.445H77.0673V10.6579C77.0673 9.99493 76.905 9.50127 76.5806 9.17686C76.2562 8.85245 75.7554 8.69025 75.0784 8.69025C74.7257 8.69025 74.3026 8.6973 73.8089 8.7114C73.3152 8.72551 72.8144 8.74667 72.3066 8.77488C71.8129 8.78898 71.3686 8.81014 70.9736 8.83835V6.34182C71.2981 6.31361 71.6648 6.2854 72.0739 6.25719C72.4829 6.22898 72.899 6.21488 73.3222 6.21488C73.7595 6.20077 74.1686 6.19372 74.5494 6.19372C75.7343 6.19372 76.7146 6.34887 77.4904 6.65917C78.2803 6.96948 78.8728 7.45609 79.2677 8.11901C79.6768 8.78193 79.8813 9.64937 79.8813 10.7213V17.8512H77.5539ZM73.8512 18.1474C73.0189 18.1474 72.2854 17.9993 71.6507 17.7031C71.03 17.4069 70.5434 16.9838 70.1908 16.4337C69.8522 15.8836 69.683 15.2207 69.683 14.445C69.683 13.5987 69.8875 12.9075 70.2966 12.3716C70.7197 11.8356 71.3051 11.4336 72.0527 11.1656C72.8144 10.8976 73.7031 10.7636 74.7187 10.7636H77.3846V12.5197H74.6764C73.9993 12.5197 73.4774 12.6889 73.1106 13.0274C72.758 13.3518 72.5817 13.775 72.5817 14.2969C72.5817 14.8187 72.758 15.2419 73.1106 15.5663C73.4774 15.8907 73.9993 16.0529 74.6764 16.0529C75.0854 16.0529 75.4592 15.9824 75.7978 15.8413C76.1504 15.6862 76.4396 15.4323 76.6653 15.0797C76.905 14.7129 77.0391 14.2193 77.0673 13.5987L77.7867 14.4238C77.7161 15.2278 77.5186 15.9048 77.1942 16.4549C76.8839 17.005 76.4466 17.4281 75.8824 17.7243C75.3323 18.0064 74.6552 18.1474 73.8512 18.1474Z" fill="#001310"/>
  <path d="M82.6085 17.8512V6.36297H84.9359V11.2926H84.7243C84.7243 10.1219 84.8795 9.14865 85.1898 8.37289C85.5001 7.58303 85.9586 6.99063 86.5651 6.5957C87.1857 6.20077 87.9545 6.00331 88.8714 6.00331H88.9983C90.3666 6.00331 91.4033 6.4476 92.1086 7.3362C92.8139 8.21069 93.1665 9.52242 93.1665 11.2714V17.8512H90.2255V11.0175C90.2255 10.3123 90.021 9.74105 89.6119 9.3038C89.217 8.86656 88.6669 8.64793 87.9616 8.64793C87.2422 8.64793 86.6568 8.87361 86.2054 9.32496C85.7681 9.7622 85.5495 10.3546 85.5495 11.1021V17.8512H82.6085Z" fill="#001310"/>
  <path d="M96.138 17.8512V2.30083H99.1425V17.8512H96.138ZM105.575 17.8512L100.835 11.1233H104.199L109.087 17.8512H105.575ZM98.2538 12.6889V10.2559H102.189C102.739 10.2559 103.212 10.143 103.607 9.91735C104.016 9.69168 104.333 9.37432 104.559 8.96529C104.785 8.55625 104.898 8.0908 104.898 7.56892C104.898 7.03295 104.785 6.56044 104.559 6.1514C104.333 5.74237 104.016 5.42501 103.607 5.19934C103.212 4.97366 102.739 4.86083 102.189 4.86083H98.2538V2.30083H101.872C103.113 2.30083 104.185 2.48419 105.088 2.85091C106.005 3.21763 106.71 3.77477 107.204 4.52231C107.698 5.26986 107.944 6.20782 107.944 7.3362V7.67471C107.944 8.81719 107.691 9.75515 107.183 10.4886C106.689 11.222 105.991 11.7721 105.088 12.1388C104.185 12.5056 103.113 12.6889 101.872 12.6889H98.2538Z" fill="#FEAA01"/>
  <path d="M115.645 18.2532C114.658 18.2532 113.79 18.084 113.043 17.7455C112.309 17.4069 111.696 16.9556 111.202 16.3914C110.722 15.8131 110.356 15.1713 110.102 14.4661C109.862 13.7609 109.742 13.0415 109.742 12.3081V11.9061C109.742 11.1445 109.862 10.411 110.102 9.70578C110.356 8.98645 110.722 8.35174 111.202 7.80165C111.696 7.23746 112.302 6.79317 113.022 6.46876C113.741 6.13025 114.573 5.96099 115.518 5.96099C116.76 5.96099 117.796 6.23603 118.629 6.78612C119.475 7.32209 120.11 8.03438 120.533 8.92297C120.956 9.79747 121.168 10.7425 121.168 11.758V12.8159H110.99V11.0175H119.327L118.417 11.9061C118.417 11.1727 118.311 10.545 118.1 10.0231C117.888 9.50127 117.564 9.09928 117.126 8.81719C116.703 8.5351 116.167 8.39405 115.518 8.39405C114.869 8.39405 114.319 8.54215 113.868 8.83835C113.417 9.13454 113.071 9.56474 112.831 10.1289C112.606 10.679 112.493 11.3419 112.493 12.1177C112.493 12.837 112.606 13.4788 112.831 14.043C113.057 14.5931 113.402 15.0303 113.868 15.3547C114.333 15.665 114.926 15.8202 115.645 15.8202C116.365 15.8202 116.95 15.6791 117.401 15.397C117.853 15.1008 118.142 14.7412 118.269 14.318H120.977C120.808 15.1079 120.484 15.799 120.004 16.3914C119.524 16.9838 118.911 17.4422 118.163 17.7666C117.43 18.091 116.59 18.2532 115.645 18.2532Z" fill="#FEAA01"/>
  <path d="M123.201 22.0826V6.36297H125.529V11.3137L125.169 11.2926C125.225 10.1219 125.465 9.1416 125.888 8.35174C126.326 7.56187 126.904 6.97653 127.623 6.5957C128.343 6.20077 129.147 6.00331 130.036 6.00331C130.854 6.00331 131.587 6.1514 132.236 6.4476C132.899 6.7438 133.463 7.15989 133.929 7.69587C134.408 8.23184 134.775 8.8595 135.029 9.57884C135.283 10.2841 135.41 11.0457 135.41 11.8638V12.3081C135.41 13.1403 135.283 13.916 135.029 14.6354C134.789 15.3406 134.429 15.9683 133.95 16.5183C133.484 17.0543 132.92 17.4775 132.257 17.7878C131.594 18.084 130.854 18.2321 130.036 18.2321C129.175 18.2321 128.385 18.0558 127.666 17.7031C126.96 17.3364 126.389 16.7793 125.952 16.0317C125.515 15.2701 125.268 14.2898 125.211 13.0909L126.142 14.5084V22.0826H123.201ZM129.295 15.7567C129.93 15.7567 130.48 15.6015 130.945 15.2912C131.425 14.9809 131.799 14.5507 132.067 14.0007C132.335 13.4365 132.469 12.8018 132.469 12.0965C132.469 11.3631 132.335 10.7284 132.067 10.1924C131.799 9.65642 131.425 9.24033 130.945 8.94413C130.48 8.63383 129.93 8.47868 129.295 8.47868C128.717 8.47868 128.181 8.60562 127.687 8.8595C127.207 9.11339 126.812 9.48716 126.502 9.98083C126.206 10.4745 126.058 11.0669 126.058 11.758V12.6043C126.058 13.2672 126.213 13.8314 126.523 14.2969C126.834 14.7623 127.236 15.122 127.729 15.3759C128.223 15.6298 128.745 15.7567 129.295 15.7567Z" fill="#FEAA01"/>
  <path d="M143.095 18.2532C142.079 18.2532 141.184 18.091 140.408 17.7666C139.632 17.4422 138.976 17.005 138.44 16.4549C137.904 15.8907 137.495 15.256 137.213 14.5507C136.945 13.8455 136.811 13.1121 136.811 12.3504V11.9061C136.811 11.1163 136.952 10.3687 137.234 9.66347C137.53 8.94413 137.946 8.30942 138.482 7.75934C139.033 7.19515 139.695 6.75791 140.471 6.4476C141.247 6.12319 142.122 5.96099 143.095 5.96099C144.068 5.96099 144.943 6.12319 145.719 6.4476C146.494 6.75791 147.15 7.19515 147.686 7.75934C148.236 8.30942 148.653 8.94413 148.935 9.66347C149.217 10.3687 149.358 11.1163 149.358 11.9061V12.3504C149.358 13.1121 149.217 13.8455 148.935 14.5507C148.667 15.256 148.265 15.8907 147.729 16.4549C147.193 17.005 146.537 17.4422 145.761 17.7666C144.985 18.091 144.096 18.2532 143.095 18.2532ZM143.095 15.7355C143.814 15.7355 144.421 15.5804 144.915 15.2701C145.408 14.9457 145.782 14.5155 146.036 13.9795C146.29 13.4294 146.417 12.8088 146.417 12.1177C146.417 11.4125 146.283 10.7918 146.015 10.2559C145.761 9.70578 145.38 9.27559 144.872 8.96529C144.379 8.64088 143.786 8.47868 143.095 8.47868C142.404 8.47868 141.804 8.64088 141.296 8.96529C140.803 9.27559 140.422 9.70578 140.154 10.2559C139.886 10.7918 139.752 11.4125 139.752 12.1177C139.752 12.8088 139.879 13.4294 140.133 13.9795C140.401 14.5155 140.782 14.9457 141.275 15.2701C141.769 15.5804 142.376 15.7355 143.095 15.7355Z" fill="#FEAA01"/>
  <path d="M151.51 17.8512V6.36297H153.837V11.2291H153.774C153.774 9.57884 154.126 8.33058 154.832 7.4843C155.537 6.63802 156.574 6.21488 157.942 6.21488H158.365V8.77488H157.561C156.574 8.77488 155.805 9.04286 155.255 9.57884C154.719 10.1007 154.451 10.8624 154.451 11.8638V17.8512H151.51Z" fill="#FEAA01"/>
  <path d="M165.151 17.9993C164.093 17.9993 163.219 17.8653 162.527 17.5974C161.85 17.3153 161.342 16.8498 161.004 16.201C160.665 15.5381 160.496 14.6495 160.496 13.5352L160.517 3.12595H163.268L163.247 13.7256C163.247 14.2898 163.395 14.7271 163.691 15.0374C164.001 15.3336 164.439 15.4817 165.003 15.4817H166.801V17.9993H165.151ZM158.676 8.52099V6.36297H166.801V8.52099H158.676Z" fill="#FEAA01"/>
  <path d="M34.5624 30.4132V24.5898H35.3399V30.4132H34.5624ZM38.1408 30.4132L36.2207 27.8347H37.1331L39.085 30.4132H38.1408ZM35.0464 28.3187V27.6284H36.6015C36.8448 27.6284 37.0538 27.5782 37.2283 27.4777C37.4029 27.3772 37.5378 27.2397 37.633 27.0651C37.7282 26.8853 37.7758 26.6817 37.7758 26.4542C37.7758 26.2268 37.7282 26.0258 37.633 25.8512C37.5378 25.6714 37.4029 25.5312 37.2283 25.4307C37.0538 25.325 36.8448 25.2721 36.6015 25.2721H35.0464V24.5898H36.4587C36.8819 24.5898 37.2521 24.6532 37.5695 24.7802C37.8869 24.9071 38.1329 25.1028 38.3074 25.3673C38.482 25.6317 38.5693 25.9729 38.5693 26.3907V26.5177C38.5693 26.9355 38.4793 27.2767 38.2995 27.5412C38.1249 27.8056 37.879 28.0013 37.5616 28.1283C37.2495 28.2552 36.8819 28.3187 36.4587 28.3187H35.0464Z" fill="#344054"/>
  <path d="M41.5719 30.556C41.2016 30.556 40.8816 30.4926 40.6118 30.3656C40.342 30.2387 40.1225 30.0721 39.9533 29.8658C39.784 29.6542 39.657 29.4188 39.5724 29.1597C39.4931 28.9005 39.4534 28.636 39.4534 28.3663V28.2235C39.4534 27.9484 39.4931 27.6813 39.5724 27.4221C39.657 27.163 39.784 26.9302 39.9533 26.724C40.1225 26.5124 40.3368 26.3458 40.5959 26.2241C40.8604 26.0972 41.1699 26.0337 41.5243 26.0337C41.9845 26.0337 42.3627 26.1342 42.6589 26.3352C42.9604 26.5309 43.1826 26.7848 43.3254 27.0969C43.4735 27.4089 43.5476 27.7421 43.5476 28.0965V28.4377H39.7866V27.8664H42.9921L42.8176 28.1759C42.8176 27.8744 42.77 27.6152 42.6748 27.3983C42.5796 27.1762 42.4367 27.0043 42.2463 26.8826C42.0559 26.761 41.8152 26.7002 41.5243 26.7002C41.2228 26.7002 40.9715 26.7689 40.7705 26.9064C40.5748 27.044 40.4267 27.2317 40.3262 27.4698C40.231 27.7078 40.1833 27.9828 40.1833 28.2949C40.1833 28.5964 40.231 28.8688 40.3262 29.1121C40.4267 29.3501 40.5801 29.5405 40.7864 29.6833C40.9927 29.8208 41.2545 29.8896 41.5719 29.8896C41.9051 29.8896 42.1749 29.8155 42.3812 29.6674C42.5928 29.5193 42.7197 29.3474 42.762 29.1517H43.4761C43.418 29.4426 43.3016 29.6939 43.127 29.9055C42.9525 30.117 42.7329 30.2783 42.4685 30.3894C42.204 30.5005 41.9051 30.556 41.5719 30.556Z" fill="#344054"/>
  <path d="M44.4704 32V26.1765H45.0734V28.0093L44.9306 27.9934C44.957 27.5385 45.0522 27.1683 45.2162 26.8826C45.3855 26.5917 45.605 26.3775 45.8748 26.24C46.1445 26.1025 46.4381 26.0337 46.7555 26.0337C47.0623 26.0337 47.34 26.0919 47.5886 26.2083C47.8425 26.3246 48.0594 26.4833 48.2392 26.6843C48.4191 26.8853 48.5566 27.118 48.6518 27.3825C48.747 27.6469 48.7946 27.9273 48.7946 28.2235V28.3663C48.7946 28.6625 48.7444 28.9428 48.6439 29.2073C48.5434 29.4717 48.4005 29.7045 48.2154 29.9055C48.0356 30.1064 47.8187 30.2651 47.5648 30.3815C47.3162 30.4979 47.0411 30.556 46.7396 30.556C46.4381 30.556 46.1498 30.4899 45.8748 30.3577C45.5997 30.2255 45.3722 30.0112 45.1924 29.715C45.0125 29.4188 44.9094 29.0301 44.8829 28.5488L45.2321 29.1835V32H44.4704ZM46.6206 29.8896C46.9062 29.8896 47.1548 29.8235 47.3664 29.6912C47.578 29.5537 47.742 29.3659 47.8584 29.1279C47.9747 28.8846 48.0329 28.6069 48.0329 28.2949C48.0329 27.9775 47.9747 27.6998 47.8584 27.4618C47.742 27.2238 47.578 27.0387 47.3664 26.9064C47.1548 26.7689 46.9062 26.7002 46.6206 26.7002C46.3667 26.7002 46.1313 26.7583 45.9144 26.8747C45.6976 26.9858 45.523 27.1497 45.3908 27.3666C45.2638 27.5782 45.2003 27.8347 45.2003 28.1362V28.5012C45.2003 28.7921 45.2664 29.0407 45.3987 29.2469C45.5309 29.4532 45.7055 29.6119 45.9224 29.723C46.1392 29.834 46.372 29.8896 46.6206 29.8896Z" fill="#344054"/>
  <path d="M51.734 30.556C51.3637 30.556 51.0384 30.4926 50.758 30.3656C50.4777 30.2387 50.2396 30.0721 50.0439 29.8658C49.8535 29.6542 49.708 29.4188 49.6075 29.1597C49.5123 28.9005 49.4647 28.636 49.4647 28.3663V28.2235C49.4647 27.9537 49.515 27.6893 49.6155 27.4301C49.716 27.1656 49.8641 26.9302 50.0598 26.724C50.2555 26.5124 50.4935 26.3458 50.7739 26.2241C51.0542 26.0972 51.3743 26.0337 51.734 26.0337C52.0937 26.0337 52.4137 26.0972 52.694 26.2241C52.9744 26.3458 53.2124 26.5124 53.4081 26.724C53.6038 26.9302 53.7519 27.1656 53.8524 27.4301C53.953 27.6893 54.0032 27.9537 54.0032 28.2235V28.3663C54.0032 28.636 53.953 28.9005 53.8524 29.1597C53.7572 29.4188 53.6118 29.6542 53.4161 29.8658C53.2256 30.0721 52.9902 30.2387 52.7099 30.3656C52.4295 30.4926 52.1042 30.556 51.734 30.556ZM51.734 29.8737C52.0513 29.8737 52.3211 29.805 52.5433 29.6674C52.7707 29.5246 52.9426 29.3342 53.059 29.0962C53.1807 28.8582 53.2415 28.5911 53.2415 28.2949C53.2415 27.9934 53.1807 27.7236 53.059 27.4856C52.9373 27.2476 52.7628 27.0598 52.5353 26.9223C52.3132 26.7848 52.046 26.716 51.734 26.716C51.4272 26.716 51.16 26.7848 50.9326 26.9223C50.7051 27.0598 50.5306 27.2476 50.4089 27.4856C50.2872 27.7236 50.2264 27.9934 50.2264 28.2949C50.2264 28.5911 50.2846 28.8582 50.401 29.0962C50.5226 29.3342 50.6945 29.5246 50.9167 29.6674C51.1442 29.805 51.4166 29.8737 51.734 29.8737Z" fill="#344054"/>
  <path d="M54.9853 30.4132V26.1765H55.5884V27.922H55.5566C55.5566 27.3031 55.6915 26.8509 55.9613 26.5653C56.2363 26.2744 56.6463 26.1289 57.1911 26.1289H57.3339V26.8112H57.0642C56.641 26.8112 56.3157 26.925 56.0882 27.1524C55.8608 27.3745 55.747 27.6972 55.747 28.1203V30.4132H54.9853Z" fill="#344054"/>
  <path d="M59.8088 30.4608C59.4915 30.4608 59.2164 30.4159 58.9837 30.326C58.7562 30.236 58.579 30.0826 58.4521 29.8658C58.3304 29.6436 58.2696 29.3448 58.2696 28.9693V24.8912H58.9995V29.0645C58.9995 29.2919 59.0604 29.4691 59.182 29.596C59.309 29.7177 59.4862 29.7785 59.7136 29.7785H60.4595V30.4608H59.8088ZM57.5396 26.7478V26.1765H60.4595V26.7478H57.5396Z" fill="#344054"/>
  <path d="M63.2311 30.4132V26.1765H63.9928V30.4132H63.2311ZM62.5805 26.7795V26.1765H63.9928V26.7795H62.5805ZM63.4454 25.4942C63.2761 25.4942 63.1491 25.4493 63.0645 25.3593C62.9852 25.2694 62.9455 25.1557 62.9455 25.0182C62.9455 24.8807 62.9852 24.7669 63.0645 24.677C63.1491 24.5871 63.2761 24.5421 63.4454 24.5421C63.6146 24.5421 63.7389 24.5871 63.8183 24.677C63.9029 24.7669 63.9452 24.8807 63.9452 25.0182C63.9452 25.1557 63.9029 25.2694 63.8183 25.3593C63.7389 25.4493 63.6146 25.4942 63.4454 25.4942Z" fill="#344054"/>
  <path d="M66.9573 30.4608C66.6399 30.4608 66.3648 30.4159 66.1321 30.326C65.9046 30.236 65.7274 30.0826 65.6005 29.8658C65.4788 29.6436 65.418 29.3448 65.418 28.9693V24.8912H66.148V29.0645C66.148 29.2919 66.2088 29.4691 66.3305 29.596C66.4574 29.7177 66.6346 29.7785 66.8621 29.7785H67.6079V30.4608H66.9573ZM64.688 26.7478V26.1765H67.6079V26.7478H64.688Z" fill="#344054"/>
  <path d="M71.5008 26.8065C72.0307 26.6745 72.5675 26.9957 72.7016 27.525C72.8359 28.0542 72.5168 28.5923 71.9881 28.7287C71.4562 28.8658 70.9142 28.5445 70.7793 28.0122C70.6443 27.4798 70.9679 26.9392 71.5008 26.8065Z" fill="#FEAA01"/>
  <path d="M77.1782 30.4132L75.6151 24.6215H76.4165L77.7733 29.9055L77.4003 29.715H78.3445L77.9319 29.9055L79.0348 24.8595H79.7648L78.5032 30.4132H77.1782ZM80.6614 30.4132L79.2729 24.8595H80.0266L81.2723 29.9055L80.8756 29.715H81.8278L81.4231 29.9055L82.6371 24.6215H83.4146L81.9944 30.4132H80.6614Z" fill="#344054"/>
  <path d="M85.8311 30.556C85.4608 30.556 85.1408 30.4926 84.871 30.3656C84.6013 30.2387 84.3818 30.0721 84.2125 29.8658C84.0432 29.6542 83.9163 29.4188 83.8316 29.1597C83.7523 28.9005 83.7126 28.636 83.7126 28.3663V28.2235C83.7126 27.9484 83.7523 27.6813 83.8316 27.4221C83.9163 27.163 84.0432 26.9302 84.2125 26.724C84.3818 26.5124 84.596 26.3458 84.8552 26.2241C85.1197 26.0972 85.4291 26.0337 85.7835 26.0337C86.2437 26.0337 86.6219 26.1342 86.9181 26.3352C87.2196 26.5309 87.4418 26.7848 87.5846 27.0969C87.7327 27.4089 87.8068 27.7421 87.8068 28.0965V28.4377H84.0459V27.8664H87.2514L87.0768 28.1759C87.0768 27.8744 87.0292 27.6152 86.934 27.3983C86.8388 27.1762 86.696 27.0043 86.5055 26.8826C86.3151 26.761 86.0744 26.7002 85.7835 26.7002C85.482 26.7002 85.2307 26.7689 85.0297 26.9064C84.834 27.044 84.6859 27.2317 84.5854 27.4698C84.4902 27.7078 84.4426 27.9828 84.4426 28.2949C84.4426 28.5964 84.4902 28.8688 84.5854 29.1121C84.6859 29.3501 84.8393 29.5405 85.0456 29.6833C85.2519 29.8208 85.5137 29.8896 85.8311 29.8896C86.1644 29.8896 86.4341 29.8155 86.6404 29.6674C86.852 29.5193 86.979 29.3474 87.0213 29.1517H87.7354C87.6772 29.4426 87.5608 29.6939 87.3863 29.9055C87.2117 30.117 86.9922 30.2783 86.7277 30.3894C86.4632 30.5005 86.1644 30.556 85.8311 30.556Z" fill="#344054"/>
  <path d="M93.0026 30.556C92.4736 30.556 92.0214 30.4635 91.6458 30.2783C91.2755 30.0932 90.9767 29.8526 90.7492 29.5564C90.5218 29.2602 90.3551 28.9402 90.2493 28.5964C90.1436 28.2473 90.0907 27.9114 90.0907 27.5888V27.4142C90.0907 27.0651 90.1436 26.716 90.2493 26.3669C90.3604 26.0179 90.5297 25.7005 90.7571 25.4149C90.9846 25.1293 91.2808 24.8992 91.6458 24.7246C92.0108 24.5501 92.4472 24.4628 92.955 24.4628C93.4734 24.4628 93.9177 24.5527 94.288 24.7326C94.6582 24.9124 94.9518 25.1636 95.1687 25.4863C95.3856 25.8089 95.5178 26.1898 95.5654 26.6288H94.772C94.7296 26.3008 94.6239 26.0311 94.4546 25.8195C94.2853 25.6026 94.0711 25.4413 93.8119 25.3355C93.558 25.2298 93.2724 25.1769 92.955 25.1769C92.6112 25.1769 92.3096 25.2377 92.0505 25.3593C91.7913 25.4757 91.5744 25.6423 91.3998 25.8592C91.2306 26.0707 91.101 26.3167 91.011 26.597C90.9264 26.8774 90.8841 27.1815 90.8841 27.5094C90.8841 27.8215 90.9264 28.1177 91.011 28.398C91.101 28.6783 91.2332 28.9269 91.4078 29.1438C91.5876 29.3607 91.8098 29.5326 92.0743 29.6595C92.3387 29.7812 92.6482 29.842 93.0026 29.842C93.4998 29.842 93.9177 29.7177 94.2562 29.4691C94.5948 29.2205 94.8011 28.8608 94.8751 28.3901H95.6686C95.6157 28.7868 95.4808 29.1491 95.2639 29.477C95.0523 29.805 94.7561 30.0668 94.3753 30.2625C93.9997 30.4582 93.5421 30.556 93.0026 30.556Z" fill="#344054"/>
  <path d="M96.5725 30.4132V24.6215H97.3342V30.4132H96.5725ZM95.9853 25.2245V24.6215H97.3342V25.2245H95.9853Z" fill="#344054"/>
  <path d="M100.438 30.556C100.067 30.556 99.7473 30.4926 99.4775 30.3656C99.2077 30.2387 98.9882 30.0721 98.819 29.8658C98.6497 29.6542 98.5227 29.4188 98.4381 29.1597C98.3588 28.9005 98.3191 28.636 98.3191 28.3663V28.2235C98.3191 27.9484 98.3588 27.6813 98.4381 27.4221C98.5227 27.163 98.6497 26.9302 98.819 26.724C98.9882 26.5124 99.2025 26.3458 99.4616 26.2241C99.7261 26.0972 100.036 26.0337 100.39 26.0337C100.85 26.0337 101.228 26.1342 101.525 26.3352C101.826 26.5309 102.048 26.7848 102.191 27.0969C102.339 27.4089 102.413 27.7421 102.413 28.0965V28.4377H98.6523V27.8664H101.858L101.683 28.1759C101.683 27.8744 101.636 27.6152 101.54 27.3983C101.445 27.1762 101.302 27.0043 101.112 26.8826C100.922 26.761 100.681 26.7002 100.39 26.7002C100.088 26.7002 99.8372 26.7689 99.6362 26.9064C99.4405 27.044 99.2924 27.2317 99.1919 27.4698C99.0967 27.7078 99.0491 27.9828 99.0491 28.2949C99.0491 28.5964 99.0967 28.8688 99.1919 29.1121C99.2924 29.3501 99.4458 29.5405 99.6521 29.6833C99.8584 29.8208 100.12 29.8896 100.438 29.8896C100.771 29.8896 101.041 29.8155 101.247 29.6674C101.458 29.5193 101.585 29.3474 101.628 29.1517H102.342C102.284 29.4426 102.167 29.6939 101.993 29.9055C101.818 30.117 101.599 30.2783 101.334 30.3894C101.07 30.5005 100.771 30.556 100.438 30.556Z" fill="#344054"/>
  <path d="M105.899 30.4132V29.1438H105.772V27.676C105.772 27.3851 105.695 27.1656 105.542 27.0175C105.394 26.8694 105.174 26.7954 104.883 26.7954C104.719 26.7954 104.55 26.798 104.375 26.8033C104.201 26.8086 104.034 26.8139 103.876 26.8192C103.717 26.8245 103.579 26.8324 103.463 26.843V26.1765C103.579 26.1659 103.701 26.158 103.828 26.1527C103.96 26.1421 104.095 26.1369 104.233 26.1369C104.37 26.1316 104.502 26.1289 104.629 26.1289C105.063 26.1289 105.418 26.1818 105.693 26.2876C105.968 26.3881 106.171 26.5547 106.304 26.7874C106.436 27.0202 106.502 27.3349 106.502 27.7316V30.4132H105.899ZM104.51 30.5243C104.193 30.5243 103.918 30.4714 103.685 30.3656C103.458 30.2545 103.281 30.0959 103.154 29.8896C103.032 29.6833 102.971 29.4347 102.971 29.1438C102.971 28.8423 103.037 28.5911 103.169 28.3901C103.307 28.1891 103.505 28.0383 103.765 27.9379C104.024 27.8321 104.336 27.7792 104.701 27.7792H105.851V28.3504H104.669C104.362 28.3504 104.127 28.4245 103.963 28.5726C103.799 28.7207 103.717 28.9111 103.717 29.1438C103.717 29.3765 103.799 29.5643 103.963 29.7071C104.127 29.8499 104.362 29.9213 104.669 29.9213C104.849 29.9213 105.021 29.8896 105.185 29.8261C105.349 29.7574 105.484 29.6463 105.589 29.4929C105.701 29.3342 105.761 29.1174 105.772 28.8423L105.978 29.1438C105.952 29.4453 105.878 29.6992 105.756 29.9055C105.64 30.1064 105.476 30.2598 105.264 30.3656C105.058 30.4714 104.807 30.5243 104.51 30.5243Z" fill="#344054"/>
  <path d="M107.741 30.4132V26.1765H108.344V27.9934H108.249C108.249 27.5755 108.305 27.2238 108.416 26.9382C108.532 26.6473 108.707 26.4278 108.939 26.2797C109.172 26.1263 109.466 26.0496 109.82 26.0496H109.852C110.386 26.0496 110.78 26.2162 111.034 26.5494C111.293 26.8826 111.423 27.364 111.423 27.9934V30.4132H110.661V27.8347C110.661 27.5068 110.569 27.245 110.383 27.0493C110.198 26.8483 109.944 26.7478 109.622 26.7478C109.288 26.7478 109.019 26.8509 108.812 27.0572C108.606 27.2635 108.503 27.5385 108.503 27.8823V30.4132H107.741Z" fill="#344054"/>
  <path d="M114.511 30.4132V26.1765H115.272V30.4132H114.511ZM113.86 26.7795V26.1765H115.272V26.7795H113.86ZM114.725 25.4942C114.556 25.4942 114.429 25.4493 114.344 25.3593C114.265 25.2694 114.225 25.1557 114.225 25.0182C114.225 24.8807 114.265 24.7669 114.344 24.677C114.429 24.5871 114.556 24.5421 114.725 24.5421C114.894 24.5421 115.019 24.5871 115.098 24.677C115.183 24.7669 115.225 24.8807 115.225 25.0182C115.225 25.1557 115.183 25.2694 115.098 25.3593C115.019 25.4493 114.894 25.4942 114.725 25.4942Z" fill="#344054"/>
  <path d="M118.237 30.4608C117.92 30.4608 117.644 30.4159 117.412 30.326C117.184 30.236 117.007 30.0826 116.88 29.8658C116.758 29.6436 116.698 29.3448 116.698 28.9693V24.8912H117.428V29.0645C117.428 29.2919 117.488 29.4691 117.61 29.596C117.737 29.7177 117.914 29.7785 118.142 29.7785H118.888V30.4608H118.237ZM115.968 26.7478V26.1765H118.888V26.7478H115.968Z" fill="#344054"/>
  <path d="M123.075 26.8065C123.604 26.6745 124.141 26.9957 124.275 27.525C124.41 28.0542 124.091 28.5923 123.562 28.7287C123.03 28.8658 122.488 28.5445 122.353 28.0122C122.218 27.4798 122.542 26.9392 123.075 26.8065Z" fill="#127C2F"/>
  <path d="M128.919 28.16L127.078 24.6215H127.887L129.442 27.6522L129.141 27.565H130.077L129.76 27.6522L131.22 24.6215H131.981L130.252 28.16H128.919ZM129.204 30.4132V28.0013H129.966V30.4132H129.204Z" fill="#344054"/>
  <path d="M134.208 30.556C133.838 30.556 133.513 30.4926 133.232 30.3656C132.952 30.2387 132.714 30.0721 132.518 29.8658C132.328 29.6542 132.182 29.4188 132.082 29.1597C131.987 28.9005 131.939 28.636 131.939 28.3663V28.2235C131.939 27.9537 131.989 27.6893 132.09 27.4301C132.19 27.1656 132.338 26.9302 132.534 26.724C132.73 26.5124 132.968 26.3458 133.248 26.2241C133.529 26.0972 133.849 26.0337 134.208 26.0337C134.568 26.0337 134.888 26.0972 135.168 26.2241C135.449 26.3458 135.687 26.5124 135.882 26.724C136.078 26.9302 136.226 27.1656 136.327 27.4301C136.427 27.6893 136.478 27.9537 136.478 28.2235V28.3663C136.478 28.636 136.427 28.9005 136.327 29.1597C136.232 29.4188 136.086 29.6542 135.89 29.8658C135.7 30.0721 135.465 30.2387 135.184 30.3656C134.904 30.4926 134.579 30.556 134.208 30.556ZM134.208 29.8737C134.526 29.8737 134.795 29.805 135.018 29.6674C135.245 29.5246 135.417 29.3342 135.533 29.0962C135.655 28.8582 135.716 28.5911 135.716 28.2949C135.716 27.9934 135.655 27.7236 135.533 27.4856C135.412 27.2476 135.237 27.0598 135.01 26.9223C134.788 26.7848 134.52 26.716 134.208 26.716C133.902 26.716 133.634 26.7848 133.407 26.9223C133.179 27.0598 133.005 27.2476 132.883 27.4856C132.762 27.7236 132.701 27.9934 132.701 28.2949C132.701 28.5911 132.759 28.8582 132.875 29.0962C132.997 29.3342 133.169 29.5246 133.391 29.6674C133.619 29.805 133.891 29.8737 134.208 29.8737Z" fill="#344054"/>
  <path d="M138.928 30.5402C138.425 30.5402 138.039 30.3762 137.769 30.0483C137.499 29.7203 137.364 29.2469 137.364 28.6281V26.1686H138.126V28.7788C138.126 29.1121 138.216 29.3739 138.396 29.5643C138.576 29.7494 138.819 29.842 139.126 29.842C139.443 29.842 139.702 29.7415 139.903 29.5405C140.104 29.3342 140.205 29.0539 140.205 28.6995V26.1686H140.967V30.4132H140.364V28.5964H140.459C140.459 29.0142 140.403 29.3686 140.292 29.6595C140.181 29.9451 140.015 30.1646 139.792 30.318C139.576 30.4661 139.298 30.5402 138.959 30.5402H138.928Z" fill="#344054"/>
  <path d="M145.168 30.4132V25.161H145.945V30.4132H145.168ZM143.406 25.3197V24.6215H147.707V25.3197H143.406Z" fill="#344054"/>
  <path d="M148.242 30.4132V26.1765H148.845V27.922H148.813C148.813 27.3031 148.948 26.8509 149.218 26.5653C149.493 26.2744 149.903 26.1289 150.448 26.1289H150.591V26.8112H150.321C149.898 26.8112 149.572 26.925 149.345 27.1524C149.118 27.3745 149.004 27.6972 149.004 28.1203V30.4132H148.242Z" fill="#344054"/>
  <path d="M153.885 30.4132V29.1438H153.758V27.676C153.758 27.3851 153.681 27.1656 153.528 27.0175C153.38 26.8694 153.16 26.7954 152.87 26.7954C152.706 26.7954 152.536 26.798 152.362 26.8033C152.187 26.8086 152.021 26.8139 151.862 26.8192C151.703 26.8245 151.566 26.8324 151.449 26.843V26.1765C151.566 26.1659 151.687 26.158 151.814 26.1527C151.946 26.1421 152.081 26.1369 152.219 26.1369C152.356 26.1316 152.489 26.1289 152.616 26.1289C153.049 26.1289 153.404 26.1818 153.679 26.2876C153.954 26.3881 154.158 26.5547 154.29 26.7874C154.422 27.0202 154.488 27.3349 154.488 27.7316V30.4132H153.885ZM152.497 30.5243C152.179 30.5243 151.904 30.4714 151.671 30.3656C151.444 30.2545 151.267 30.0959 151.14 29.8896C151.018 29.6833 150.957 29.4347 150.957 29.1438C150.957 28.8423 151.023 28.5911 151.156 28.3901C151.293 28.1891 151.492 28.0383 151.751 27.9379C152.01 27.8321 152.322 27.7792 152.687 27.7792H153.838V28.3504H152.655C152.348 28.3504 152.113 28.4245 151.949 28.5726C151.785 28.7207 151.703 28.9111 151.703 29.1438C151.703 29.3765 151.785 29.5643 151.949 29.7071C152.113 29.8499 152.348 29.9213 152.655 29.9213C152.835 29.9213 153.007 29.8896 153.171 29.8261C153.335 29.7574 153.47 29.6463 153.576 29.4929C153.687 29.3342 153.748 29.1174 153.758 28.8423L153.964 29.1438C153.938 29.4453 153.864 29.6992 153.742 29.9055C153.626 30.1064 153.462 30.2598 153.25 30.3656C153.044 30.4714 152.793 30.5243 152.497 30.5243Z" fill="#344054"/>
  <path d="M157.544 30.556C157.179 30.556 156.862 30.4926 156.592 30.3656C156.328 30.2387 156.108 30.0694 155.934 29.8579C155.759 29.641 155.627 29.403 155.537 29.1438C155.452 28.8846 155.41 28.6255 155.41 28.3663V28.2235C155.41 27.9537 155.452 27.6893 155.537 27.4301C155.627 27.1709 155.759 26.9382 155.934 26.7319C156.114 26.5203 156.336 26.3511 156.6 26.2241C156.865 26.0972 157.174 26.0337 157.529 26.0337C157.883 26.0337 158.2 26.0998 158.481 26.2321C158.766 26.3643 158.994 26.5521 159.163 26.7954C159.338 27.0334 159.435 27.3164 159.457 27.6443H158.727C158.69 27.3798 158.568 27.1603 158.362 26.9858C158.155 26.8059 157.878 26.716 157.529 26.716C157.227 26.716 156.976 26.7848 156.775 26.9223C156.574 27.0598 156.423 27.2476 156.323 27.4856C156.222 27.7236 156.172 27.9934 156.172 28.2949C156.172 28.5858 156.222 28.8529 156.323 29.0962C156.423 29.3342 156.574 29.5246 156.775 29.6674C156.981 29.805 157.238 29.8737 157.544 29.8737C157.782 29.8737 157.989 29.8314 158.163 29.7468C158.338 29.6621 158.478 29.5484 158.584 29.4056C158.69 29.2628 158.753 29.1015 158.774 28.9217H159.504C159.488 29.2549 159.391 29.5431 159.211 29.7864C159.036 30.0298 158.803 30.2202 158.512 30.3577C158.227 30.4899 157.904 30.556 157.544 30.556Z" fill="#344054"/>
  <path d="M163.3 30.4132L161.706 28.4377H161.007L162.951 26.1765H163.753L161.991 28.2155L162.047 27.8109L164.181 30.4132H163.3ZM160.381 30.4132V24.6215H161.142V30.4132H160.381Z" fill="#344054"/>
  <path d="M166.623 30.4132V26.1765H167.385V30.4132H166.623ZM165.973 26.7795V26.1765H167.385V26.7795H165.973ZM166.837 25.4942C166.668 25.4942 166.541 25.4493 166.457 25.3593C166.377 25.2694 166.338 25.1557 166.338 25.0182C166.338 24.8807 166.377 24.7669 166.457 24.677C166.541 24.5871 166.668 24.5421 166.837 24.5421C167.007 24.5421 167.131 24.5871 167.21 24.677C167.295 24.7669 167.337 24.8807 167.337 25.0182C167.337 25.1557 167.295 25.2694 167.21 25.3593C167.131 25.4493 167.007 25.4942 166.837 25.4942Z" fill="#344054"/>
  <path d="M170.349 30.4608C170.032 30.4608 169.757 30.4159 169.524 30.326C169.297 30.236 169.12 30.0826 168.993 29.8658C168.871 29.6436 168.81 29.3448 168.81 28.9693V24.8912H169.54V29.0645C169.54 29.2919 169.601 29.4691 169.723 29.596C169.85 29.7177 170.027 29.7785 170.254 29.7785H171V30.4608H170.349ZM168.08 26.7478V26.1765H171V26.7478H168.08Z" fill="#344054"/>
</svg>